<?xml version="1.0" encoding="UTF-8" standalone="no"?>
<!DOCTYPE svg PUBLIC "-//W3C//DTD SVG 1.1//EN"
 "http://www.w3.org/Graphics/SVG/1.1/DTD/svg11.dtd">
<!-- Generated by graphviz version 2.40.1 (20161225.0304)
 -->
<!-- Title: %0 Pages: 1 -->
<svg width="331pt" height="467pt"
 viewBox="0.00 0.00 331.12 467.00" xmlns="http://www.w3.org/2000/svg" xmlns:xlink="http://www.w3.org/1999/xlink">
<g id="graph0" class="graph" transform="scale(1 1) rotate(0) translate(4 463)">
<title>%0</title>
<polygon fill="#ffffff" stroke="transparent" points="-4,4 -4,-463 327.124,-463 327.124,4 -4,4"/>
<!-- blocks -->
<g id="node1" class="node">
<title>blocks</title>
<g id="a_node1"><a xlink:title="blocks">
<polygon fill="#ffffff" stroke="#000000" points="9.4575,-322.5 9.4575,-458.5 194.6665,-458.5 194.6665,-322.5 9.4575,-322.5"/>
<text text-anchor="middle" x="102.062" y="-445.5" font-family="Helvetica,sans-Serif" font-size="10.00" fill="#000000">blocks</text>
<polyline fill="none" stroke="#000000" points="9.4575,-438.5 194.6665,-438.5 "/>
<text text-anchor="start" x="17.4575" y="-425.5" font-family="Helvetica,sans-Serif" font-size="10.00" fill="#000000">+ id(self increment id) : serial</text>
<text text-anchor="start" x="17.4575" y="-413.5" font-family="Helvetica,sans-Serif" font-size="10.00" fill="#000000">+ block_num(block number) : integer</text>
<text text-anchor="start" x="17.4575" y="-401.5" font-family="Helvetica,sans-Serif" font-size="10.00" fill="#000000">+ block_time(block time) : date</text>
<text text-anchor="start" x="17.4575" y="-389.5" font-family="Helvetica,sans-Serif" font-size="10.00" fill="#000000">+ producer_block_id(block hash) : text</text>
<text text-anchor="start" x="17.4575" y="-377.5" font-family="Helvetica,sans-Serif" font-size="10.00" fill="#000000">+ previous(previous block hash) : text</text>
<text text-anchor="start" x="17.4575" y="-365.5" font-family="Helvetica,sans-Serif" font-size="10.00" fill="#000000">+ producer(block producer) : text</text>
<text text-anchor="start" x="17.4575" y="-353.5" font-family="Helvetica,sans-Serif" font-size="10.00" fill="#000000">+ status(block status) : enum</text>
<text text-anchor="start" x="17.4575" y="-341.5" font-family="Helvetica,sans-Serif" font-size="10.00" fill="#000000">+ createdAt : date</text>
<text text-anchor="start" x="17.4575" y="-329.5" font-family="Helvetica,sans-Serif" font-size="10.00" fill="#000000">+ updatedAt : date</text>
</a>
</g>
</g>
<!-- transactions -->
<g id="node2" class="node">
<title>transactions</title>
<g id="a_node2"><a xlink:title="transactions">
<polygon fill="#ffffff" stroke="#000000" points="7.789,-161.5 7.789,-273.5 196.335,-273.5 196.335,-161.5 7.789,-161.5"/>
<text text-anchor="middle" x="102.062" y="-260.5" font-family="Helvetica,sans-Serif" font-size="10.00" fill="#000000">transactions</text>
<polyline fill="none" stroke="#000000" points="7.789,-253.5 196.335,-253.5 "/>
<text text-anchor="start" x="15.789" y="-240.5" font-family="Helvetica,sans-Serif" font-size="10.00" fill="#000000">+ id(self increment id) : serial</text>
<text text-anchor="start" x="15.789" y="-228.5" font-family="Helvetica,sans-Serif" font-size="10.00" fill="#000000">+ producer_block_id(block hash) : text</text>
<text text-anchor="start" x="15.789" y="-216.5" font-family="Helvetica,sans-Serif" font-size="10.00" fill="#000000">+ trx_id(transaction hash) : text</text>
<text text-anchor="start" x="15.789" y="-204.5" font-family="Helvetica,sans-Serif" font-size="10.00" fill="#000000">+ rawData(raw data) : object</text>
<text text-anchor="start" x="15.789" y="-192.5" font-family="Helvetica,sans-Serif" font-size="10.00" fill="#000000">+ contract_action(contract action) : text</text>
<text text-anchor="start" x="15.789" y="-180.5" font-family="Helvetica,sans-Serif" font-size="10.00" fill="#000000">+ createdAt : date</text>
<text text-anchor="start" x="15.789" y="-168.5" font-family="Helvetica,sans-Serif" font-size="10.00" fill="#000000">+ updatedAt : date</text>
</a>
</g>
</g>
<!-- blocks&#45;&gt;transactions -->
<g id="edge1" class="edge">
<title>blocks&#45;&gt;transactions</title>
<path fill="none" stroke="#000000" d="M64.2706,-315.6893C63.2192,-307.776 63.34,-299.779 65.161,-292 65.9788,-288.5063 66.9858,-284.9886 68.1374,-281.4846"/>
<ellipse fill="none" stroke="#000000" cx="64.8715" cy="-319.1571" rx="3.2" ry="3.2"/>
<polygon fill="none" stroke="#000000" points="73.5084,-274.7942 68.1744,-281.3812 68.2365,-272.9055 73.5084,-274.7942"/>
<text text-anchor="middle" x="93.0125" y="-295" font-family="Helvetica,sans-Serif" font-size="10.00" fill="#000000">transactions</text>
</g>
<!-- transactions&#45;&gt;blocks -->
<g id="edge2" class="edge">
<title>transactions&#45;&gt;blocks</title>
<path fill="none" stroke="#000000" d="M117.4525,-280.4005C118.0866,-284.3103 118.6339,-288.1996 119.062,-292 119.8751,-299.2184 119.9678,-306.7098 119.5539,-314.1918"/>
<ellipse fill="none" stroke="#000000" cx="116.8563" cy="-276.9659" rx="3.2" ry="3.2"/>
<polygon fill="none" stroke="#000000" points="116.7527,-314.0985 118.9161,-322.2936 122.3354,-314.5381 116.7527,-314.0985"/>
<text text-anchor="middle" x="130.7305" y="-295" font-family="Helvetica,sans-Serif" font-size="10.00" fill="#000000">block</text>
</g>
<!-- actions -->
<g id="node3" class="node">
<title>actions</title>
<g id="a_node3"><a xlink:title="actions">
<polygon fill="#ffffff" stroke="#000000" points="0,-.5 0,-112.5 204.124,-112.5 204.124,-.5 0,-.5"/>
<text text-anchor="middle" x="102.062" y="-99.5" font-family="Helvetica,sans-Serif" font-size="10.00" fill="#000000">actions</text>
<polyline fill="none" stroke="#000000" points="0,-92.5 204.124,-92.5 "/>
<text text-anchor="start" x="8" y="-79.5" font-family="Helvetica,sans-Serif" font-size="10.00" fill="#000000">+ id(self increment id) : serial</text>
<text text-anchor="start" x="8" y="-67.5" font-family="Helvetica,sans-Serif" font-size="10.00" fill="#000000">+ global_sequence(global sequence) : text</text>
<text text-anchor="start" x="8" y="-55.5" font-family="Helvetica,sans-Serif" font-size="10.00" fill="#000000">+ trx_id(transaction hash) : text</text>
<text text-anchor="start" x="8" y="-43.5" font-family="Helvetica,sans-Serif" font-size="10.00" fill="#000000">+ contract_action(contract action) : text</text>
<text text-anchor="start" x="8" y="-31.5" font-family="Helvetica,sans-Serif" font-size="10.00" fill="#000000">+ rawData(raw data) : object</text>
<text text-anchor="start" x="8" y="-19.5" font-family="Helvetica,sans-Serif" font-size="10.00" fill="#000000">+ createdAt : date</text>
<text text-anchor="start" x="8" y="-7.5" font-family="Helvetica,sans-Serif" font-size="10.00" fill="#000000">+ updatedAt : date</text>
</a>
</g>
</g>
<!-- transactions&#45;&gt;actions -->
<g id="edge3" class="edge">
<title>transactions&#45;&gt;actions</title>
<path fill="none" stroke="#000000" d="M78.8999,-155.1003C77.9094,-151.0412 77.0543,-146.9845 76.387,-143 75.1708,-135.7386 75.2667,-128.2279 76.2337,-120.8042"/>
<ellipse fill="none" stroke="#000000" cx="79.7533" cy="-158.3743" rx="3.2" ry="3.2"/>
<polygon fill="none" stroke="#000000" points="80.364,-113.2711 76.2542,-120.6839 74.8443,-112.3262 80.364,-113.2711"/>
<text text-anchor="middle" x="92.8995" y="-134" font-family="Helvetica,sans-Serif" font-size="10.00" fill="#000000">actions</text>
</g>
<!-- actions&#45;&gt;transactions -->
<g id="edge6" class="edge">
<title>actions&#45;&gt;transactions</title>
<path fill="none" stroke="#000000" d="M108.0394,-119.4141C108.3182,-127.3503 108.3691,-135.3618 108.062,-143 107.9271,-146.3548 107.7582,-149.7925 107.5635,-153.2622"/>
<ellipse fill="none" stroke="#000000" cx="107.8917" cy="-115.9723" rx="3.2" ry="3.2"/>
<polygon fill="none" stroke="#000000" points="104.76,-153.2358 107.0664,-161.3918 110.3496,-153.5776 104.76,-153.2358"/>
<text text-anchor="middle" x="132.5125" y="-134" font-family="Helvetica,sans-Serif" font-size="10.00" fill="#000000">transaction</text>
</g>
<!-- actions&#45;&gt;actions -->
<g id="edge4" class="edge">
<title>actions&#45;&gt;actions</title>
<path fill="none" stroke="#000000" d="M210.9842,-61.7948C217.9309,-60.5538 222.124,-58.7888 222.124,-56.5 222.124,-54.3943 218.5749,-52.732 212.5978,-51.5131"/>
<ellipse fill="none" stroke="#000000" cx="207.701" cy="-62.2627" rx="3.2" ry="3.2"/>
<polygon fill="none" stroke="#000000" points="204.9543,-47.5177 212.442,-51.4894 204.1118,-53.054 204.9543,-47.5177"/>
<text text-anchor="middle" x="249.908" y="-53.5" font-family="Helvetica,sans-Serif" font-size="10.00" fill="#000000">inline_action</text>
</g>
<!-- actions&#45;&gt;actions -->
<g id="edge5" class="edge">
<title>actions&#45;&gt;actions</title>
<path fill="none" stroke="#000000" d="M211.2918,-71.48C247.6137,-71.128 277.692,-66.1347 277.692,-56.5 277.692,-46.9852 248.3579,-41.997 212.6452,-41.5353"/>
<ellipse fill="none" stroke="#000000" cx="207.6428" cy="-71.4862" rx="3.2" ry="3.2"/>
<polygon fill="none" stroke="#000000" points="212.4521,-38.7348 204.4428,-41.5082 212.4335,-44.3347 212.4521,-38.7348"/>
<text text-anchor="middle" x="291.864" y="-53.5" font-family="Helvetica,sans-Serif" font-size="10.00" fill="#000000">parent</text>
</g>
</g>
</svg>
